<?xml version="1.0" standalone="no"?>
<!DOCTYPE svg PUBLIC "-//W3C//DTD SVG 20010904//EN"
 "http://www.w3.org/TR/2001/REC-SVG-20010904/DTD/svg10.dtd">
<svg version="1.0" xmlns="http://www.w3.org/2000/svg"
 width="128.000000pt" height="128.000000pt" viewBox="0 0 128.000000 128.000000"
 preserveAspectRatio="xMidYMid meet">
<metadata>
Created by potrace 1.10, written by Peter Selinger 2001-2011
</metadata>
<g transform="translate(0.000000,128.000000) scale(0.050000,-0.050000)"
fill="#000000" stroke="none">
<path d="M215 2422 c-41 -40 -75 -80 -75 -90 0 -10 -16 -29 -35 -43 -24 -18
-29 -33 -14 -47 14 -15 59 17 146 105 145 146 124 215 -22 75z"/>
<path d="M406 2215 c-248 -248 -300 -315 -243 -315 26 0 577 539 577 564 0 58
-102 -18 -334 -249z"/>
<path d="M812 2218 c-221 -221 -253 -260 -202 -249 88 19 580 511 511 511 -35
0 -118 -70 -309 -262z"/>
<path d="M1213 2222 c-221 -220 -251 -256 -201 -248 54 10 528 449 528 491 0
56 -101 -19 -327 -243z"/>
<path d="M1623 2230 c-217 -213 -246 -249 -203 -250 38 0 112 61 300 250 204
204 241 250 203 250 -33 0 -122 -73 -300 -250z"/>
<path d="M2025 2235 c-210 -208 -241 -246 -203 -252 41 -6 518 437 518 482 0
55 -99 -17 -315 -230z"/>
<path d="M2320 2130 c-135 -136 -144 -150 -98 -150 58 0 278 213 278 269 0 53
-26 36 -180 -119z"/>
<path d="M273 1821 c-22 -54 14 -462 40 -452 17 6 151 11 299 11 l268 0 0 226
0 226 -125 -3 c-125 -3 -125 -3 -131 -66 -10 -96 -107 -94 -99 2 l5 65 -126 1
c-70 1 -129 -4 -131 -10z"/>
<path d="M980 1605 l0 -225 301 0 300 0 -5 224 -6 224 -120 -2 c-119 -1 -120
-2 -126 -64 -10 -93 -101 -92 -97 1 l3 63 -125 2 -125 2 0 -225z"/>
<path d="M1680 1606 l0 -224 295 -6 c162 -3 296 -6 298 -6 2 0 6 103 10 230
l7 229 -130 1 -130 0 5 -65 c8 -96 -89 -98 -99 -2 l-6 64 -125 1 -125 2 0
-224z"/>
<path d="M248 1281 c-203 -83 -219 -393 -25 -509 80 -48 2032 -49 2113 -1 179
107 190 336 23 477 l-62 52 -1004 -1 c-551 -1 -1022 -9 -1045 -18z m2067 -151
c58 -68 57 -153 -3 -224 l-48 -56 -984 1 -984 0 -48 56 c-91 105 -35 264 97
277 36 3 484 4 995 2 l930 -4 45 -52z"/>
<path d="M395 1119 c-90 -53 -78 -187 19 -212 118 -29 200 133 102 202 -52 36
-73 38 -121 10z"/>
<path d="M920 1100 c-106 -106 32 -256 156 -169 82 58 27 209 -76 209 -22 0
-58 -18 -80 -40z"/>
<path d="M1480 1100 c-76 -76 -24 -200 84 -200 48 0 116 70 116 120 0 22 -18
58 -40 80 -22 22 -58 40 -80 40 -22 0 -58 -18 -80 -40z"/>
<path d="M2044 1109 c-87 -62 -32 -209 79 -209 34 0 117 88 117 124 0 77 -128
132 -196 85z"/>
<path d="M2165 375 c-269 -270 -289 -295 -234 -295 17 0 26 9 19 20 -7 11 4
20 24 20 58 0 485 442 469 485 -11 28 -66 -17 -278 -230z"/>
<path d="M231 440 c-116 -120 -162 -200 -116 -200 48 0 327 315 288 325 -30 8
-72 -23 -172 -125z"/>
<path d="M515 325 c-227 -228 -257 -265 -215 -265 11 0 20 14 20 30 0 18 18
30 45 30 31 0 115 69 265 220 189 189 212 220 169 220 -37 0 -110 -60 -284
-235z"/>
<path d="M911 321 c-132 -132 -232 -247 -223 -255 8 -9 27 0 41 19 14 19 38
35 54 35 15 0 126 99 247 220 189 189 212 220 169 220 -37 0 -111 -61 -288
-239z"/>
<path d="M1311 321 c-219 -219 -267 -287 -181 -254 18 7 27 22 20 33 -7 11 4
20 24 20 20 0 135 99 256 220 189 189 212 220 169 220 -37 0 -111 -61 -288
-239z"/>
<path d="M1710 320 c-149 -149 -226 -240 -205 -240 19 0 35 9 35 20 0 11 16
20 35 20 20 0 134 99 255 220 189 189 212 220 169 220 -37 0 -111 -61 -289
-240z"/>
<path d="M2372 182 c-57 -58 -87 -103 -74 -111 40 -25 202 125 202 188 0 40
-32 21 -128 -77z"/>
</g>
</svg>
