<?xml version="1.0" standalone="no"?>
<!DOCTYPE svg PUBLIC "-//W3C//DTD SVG 20010904//EN"
 "http://www.w3.org/TR/2001/REC-SVG-20010904/DTD/svg10.dtd">
<svg version="1.0" xmlns="http://www.w3.org/2000/svg"
 width="128.000000pt" height="128.000000pt" viewBox="0 0 128.000000 128.000000"
 preserveAspectRatio="xMidYMid meet">
<metadata>
Created by potrace 1.10, written by Peter Selinger 2001-2011
</metadata>
<g transform="translate(0.000000,128.000000) scale(0.050000,-0.050000)"
fill="#000000" stroke="none">
<path d="M262 2466 c-13 -14 -16 -26 -8 -26 9 0 -6 -12 -32 -25 -26 -14 -58
-43 -70 -65 -12 -21 -35 -49 -50 -62 -16 -12 -21 -33 -13 -47 14 -23 271 204
271 239 0 22 -74 11 -98 -14z"/>
<path d="M2205 2411 c-60 -55 -70 -73 -50 -94 20 -20 41 -10 105 53 129 126
78 164 -55 41z"/>
<path d="M838 2393 c-244 -100 -522 -333 -398 -333 115 0 129 -276 20 -385
l-81 -81 -129 12 -128 12 -16 -74 c-21 -96 -21 -432 0 -528 l16 -74 128 12
129 12 81 -81 c109 -109 95 -385 -20 -385 -11 0 -20 -16 -19 -35 3 -111 599
-425 599 -316 0 283 460 316 512 37 16 -87 63 -83 279 23 204 100 407 291 309
291 -115 0 -129 276 -20 385 l81 81 129 -12 128 -12 16 74 c21 96 21 432 0
528 l-16 74 -128 -12 -129 -12 -81 81 c-109 109 -95 385 20 385 98 0 -105 191
-309 291 -216 106 -263 110 -279 23 -52 -277 -512 -246 -512 34 0 44 -49 40
-182 -15z m174 -313 c63 -55 122 -100 131 -100 47 0 5 -43 -98 -100 -337 -188
-477 -541 -337 -847 51 -113 304 -365 386 -386 47 -12 62 -55 26 -77 -12 -7
-16 -21 -9 -31 6 -10 -1 -14 -15 -8 -15 5 -62 -26 -106 -71 -89 -92 -131 -98
-223 -35 l-66 45 12 171 c18 249 -136 483 -350 533 -125 29 -121 170 5 205
227 64 360 272 349 548 l-7 183 70 35 c98 49 104 47 232 -65z m748 70 c79 -41
98 -81 78 -168 -53 -227 80 -477 309 -582 86 -39 152 -104 118 -115 -14 -5
-25 -29 -25 -55 0 -36 -14 -50 -61 -60 -34 -8 -67 -26 -72 -42 -6 -15 -22 -28
-36 -28 -121 0 -267 -301 -237 -488 17 -106 15 -121 -23 -156 -76 -73 -191
-91 -191 -31 0 12 -4 17 -10 12 -5 -6 -53 30 -105 79 -52 49 -113 96 -135 105
-36 15 -35 16 10 14 157 -7 566 373 486 452 -6 7 -3 24 8 38 130 163 -78 613
-344 745 -141 70 -141 67 -17 178 95 86 146 122 183 131 3 0 32 -12 64 -29z
m-278 -486 c418 -218 228 -865 -242 -820 -542 53 -505 876 40 876 66 0 129
-17 202 -56z"/>
<path d="M1174 1383 c-111 -113 -146 -162 -137 -188 11 -29 46 -2 190 142 149
150 170 179 137 188 -30 8 -77 -28 -190 -142z"/>
<path d="M1370 1181 c-141 -143 -153 -161 -109 -161 70 0 285 217 276 278 -6
37 -29 21 -167 -117z"/>
<path d="M2360 2170 c-60 -60 -102 -110 -95 -110 8 0 5 -25 -6 -55 -16 -43 9
-26 111 78 115 117 161 197 114 197 -8 0 -64 -49 -124 -110z"/>
<path d="M174 1980 c-93 -102 -113 -140 -74 -140 11 0 20 10 20 21 0 12 8 17
17 11 31 -20 160 135 145 175 -12 31 -27 22 -108 -67z"/>
<path d="M2410 1820 c-64 -67 -56 -75 31 -29 32 16 59 43 59 60 0 44 -27 35
-90 -31z"/>
<path d="M137 724 c-38 -40 -48 -65 -36 -85 17 -27 28 -12 21 27 -2 10 5 12
14 6 10 -6 43 16 75 49 50 52 52 59 18 59 -22 0 -63 -25 -92 -56z"/>
<path d="M2371 581 c-64 -65 -99 -118 -100 -152 -2 -48 7 -43 113 67 103 107
145 184 100 184 -8 0 -59 -45 -113 -99z"/>
<path d="M183 391 c-76 -81 -107 -151 -67 -151 36 0 154 145 155 191 1 61 10
65 -88 -40z"/>
<path d="M2372 182 c-57 -58 -87 -103 -74 -111 40 -25 202 125 202 188 0 40
-32 21 -128 -77z"/>
<path d="M340 150 c-68 -70 -71 -125 -4 -63 21 18 47 33 60 33 28 0 68 70 50
87 -22 22 -37 15 -106 -57z"/>
</g>
</svg>
