<?xml version="1.0" standalone="no"?>
<!DOCTYPE svg PUBLIC "-//W3C//DTD SVG 20010904//EN"
 "http://www.w3.org/TR/2001/REC-SVG-20010904/DTD/svg10.dtd">
<svg version="1.0" xmlns="http://www.w3.org/2000/svg"
 width="128.000000pt" height="128.000000pt" viewBox="0 0 128.000000 128.000000"
 preserveAspectRatio="xMidYMid meet">
<metadata>
Created by potrace 1.10, written by Peter Selinger 2001-2011
</metadata>
<g transform="translate(0.000000,128.000000) scale(0.050000,-0.050000)"
fill="#000000" stroke="none">
<path d="M215 2422 c-41 -40 -75 -80 -75 -90 0 -10 -16 -29 -35 -43 -24 -18
-29 -33 -14 -47 14 -15 59 17 146 105 145 146 124 215 -22 75z"/>
<path d="M678 2470 c-2 -5 -4 -21 -6 -35 -2 -14 -17 -23 -34 -20 -17 3 -53
-18 -79 -47 l-49 -52 79 33 c122 50 196 131 121 131 -16 0 -31 -4 -32 -10z"/>
<path d="M1067 2450 c-6 -16 -18 -26 -26 -21 -8 5 -41 -18 -73 -51 l-58 -61
60 14 c59 14 170 101 170 133 0 28 -61 17 -73 -14z"/>
<path d="M2258 2460 c-47 -28 -102 -118 -87 -142 13 -21 169 114 169 146 0 21
-42 19 -82 -4z"/>
<path d="M1708 2412 c-144 -64 -171 -213 -60 -324 167 -167 471 -8 384 200
-51 122 -202 180 -324 124z"/>
<path d="M2115 1925 c-277 -278 -350 -361 -335 -385 23 -36 720 648 720 706 0
60 -25 39 -385 -321z"/>
<path d="M1280 2200 c-128 -128 84 -313 219 -191 92 84 23 231 -109 231 -43 0
-85 -15 -110 -40z"/>
<path d="M537 2163 c-81 -72 -63 -111 42 -93 61 10 98 1 197 -51 226 -119 404
-89 404 68 0 106 -135 162 -200 83 -34 -41 -107 -38 -200 10 -107 54 -168 50
-243 -17z"/>
<path d="M213 2020 c-73 -77 -112 -136 -111 -165 2 -43 3 -43 18 5 9 28 17 37
18 21 2 -26 6 -26 31 0 29 28 173 259 163 259 -3 0 -56 -54 -119 -120z"/>
<path d="M388 1968 c7 -17 12 -278 12 -580 l0 -548 110 0 110 0 0 580 0 580
-122 0 c-103 0 -120 -5 -110 -32z"/>
<path d="M1573 1783 c-85 -86 -91 -99 -57 -108 29 -7 69 19 146 97 99 100 103
108 57 108 -34 0 -82 -32 -146 -97z"/>
<path d="M2155 1565 c-246 -246 -310 -322 -295 -345 23 -36 640 568 640 626 0
60 -25 39 -345 -281z"/>
<path d="M1158 1768 c-83 -84 -84 -88 -36 -88 72 0 219 150 161 165 -28 7 -64
-15 -125 -77z"/>
<path d="M173 1579 c-20 -20 -33 -55 -30 -79 l7 -44 43 47 c55 61 38 131 -20
76z"/>
<path d="M720 1141 l0 -360 -315 -5 -315 -6 0 -320 0 -320 1190 0 1190 0 5
425 6 425 -413 0 -413 0 8 255 7 255 -475 5 -475 6 0 -360z m316 116 c6 -33
-68 -137 -97 -137 -11 0 -19 32 -19 70 0 49 9 70 30 70 17 0 30 10 30 22 0 31
49 10 56 -25z m340 -81 c63 -63 14 -176 -76 -176 -67 0 -100 34 -100 103 0 83
118 131 176 73z m-112 -233 c25 -32 84 -83 131 -113 86 -56 112 -121 56 -142
-16 -6 -69 16 -119 50 l-90 62 -35 -60 c-34 -57 -43 -60 -162 -60 l-126 0 44
85 c129 254 203 298 301 178z m512 -168 l-6 -85 -88 0 -88 0 -8 85 -8 85 102
0 102 0 -6 -85z m366 76 c5 -5 6 -45 2 -90 l-8 -81 -88 0 -88 0 0 90 0 90 87
0 c47 0 90 -4 95 -9z m101 -242 c134 -70 132 -249 -3 -319 -87 -45 -1833 -45
-1920 0 -135 70 -137 247 -4 319 80 43 1843 43 1927 0z"/>
<path d="M331 529 c-40 -41 -40 -117 0 -158 39 -38 1820 -48 1890 -10 48 25
52 123 8 168 -48 47 -1850 47 -1898 0z m137 -54 c16 -26 14 -42 -12 -67 -60
-60 -149 18 -95 83 31 38 77 31 107 -16z m213 13 c36 -43 0 -98 -63 -98 -35 0
-50 13 -55 48 -10 75 69 109 118 50z m220 0 c36 -42 0 -98 -63 -98 -49 0 -72
46 -50 101 14 39 81 37 113 -3z m218 -5 c26 -49 -17 -110 -70 -100 -40 8 -60
59 -41 108 15 41 87 36 111 -8z m218 3 c26 -46 -7 -106 -57 -106 -50 0 -82 58
-58 104 25 46 90 46 115 2z m213 -36 c0 -71 -62 -95 -103 -39 -36 48 1 114 59
105 34 -5 44 -20 44 -66z m220 0 c0 -69 -65 -94 -108 -42 -36 43 7 116 64 108
34 -5 44 -20 44 -66z m207 52 c46 -29 20 -112 -35 -112 -63 0 -99 55 -63 98
29 36 58 40 98 14z m231 -27 c16 -26 14 -42 -12 -67 -60 -60 -149 18 -95 83
31 38 77 31 107 -16z"/>
<path d="M2313 1323 c-136 -137 -151 -159 -115 -168 45 -12 302 239 302 295 0
52 -27 34 -187 -127z"/>
<path d="M175 1175 c-19 -19 -35 -55 -35 -79 l0 -45 42 42 c23 23 38 59 35 80
-7 36 -9 36 -42 2z"/>
</g>
</svg>
