<?xml version="1.0" standalone="no"?>
<!DOCTYPE svg PUBLIC "-//W3C//DTD SVG 20010904//EN"
 "http://www.w3.org/TR/2001/REC-SVG-20010904/DTD/svg10.dtd">
<svg version="1.0" xmlns="http://www.w3.org/2000/svg"
 width="128.000000pt" height="128.000000pt" viewBox="0 0 128.000000 128.000000"
 preserveAspectRatio="xMidYMid meet">
<metadata>
Created by potrace 1.10, written by Peter Selinger 2001-2011
</metadata>
<g transform="translate(0.000000,128.000000) scale(0.050000,-0.050000)"
fill="#000000" stroke="none">
<path d="M215 2422 c-41 -40 -75 -80 -75 -90 0 -10 -16 -29 -35 -43 -24 -18
-29 -33 -14 -47 14 -15 59 17 146 105 145 146 124 215 -22 75z"/>
<path d="M375 2182 c-162 -164 -295 -313 -295 -331 0 -43 40 -19 42 25 1 24 4
26 12 7 10 -26 606 546 606 582 0 60 -110 -25 -365 -283z"/>
<path d="M814 2223 c-217 -215 -253 -259 -219 -268 32 -8 99 49 307 257 222
223 259 268 219 268 -35 0 -119 -70 -307 -257z"/>
<path d="M1374 2379 c-100 -96 -102 -100 -44 -87 57 12 210 138 210 172 0 43
-73 6 -166 -85z"/>
<path d="M1735 2341 c-118 -112 -140 -143 -120 -164 21 -21 56 5 190 139 217
217 154 240 -70 25z"/>
<path d="M2015 2225 c-218 -216 -251 -256 -213 -262 41 -6 538 457 538 502 0
56 -100 -18 -325 -240z"/>
<path d="M2280 2086 c-105 -107 -182 -188 -172 -181 10 8 29 6 42 -5 28 -23
350 296 350 348 0 56 -26 37 -220 -162z"/>
<path d="M1246 2105 c-103 -81 -104 -229 -3 -314 144 -121 358 8 323 194 -25
129 -217 200 -320 120z m210 -56 c95 -67 32 -249 -87 -249 -60 0 -149 82 -149
136 0 113 140 180 236 113z"/>
<path d="M1315 2018 c-50 -29 -46 -131 6 -159 32 -17 52 -15 90 10 107 70 15
214 -96 149z"/>
<path d="M910 1868 c-77 -26 -151 -52 -165 -57 -16 -7 -8 -27 25 -63 28 -30
61 -91 74 -136 13 -45 25 -84 26 -87 2 -3 76 43 164 102 149 100 158 110 131
145 -16 21 -38 63 -49 93 -24 65 -27 66 -206 3z"/>
<path d="M2392 1802 c-59 -60 -72 -86 -58 -111 16 -29 29 -22 93 48 124 137
93 194 -35 63z"/>
<path d="M1566 1782 l-45 -57 74 -52 c69 -49 72 -57 67 -151 -6 -121 33 -204
125 -260 130 -81 251 -40 150 50 -190 169 -21 389 192 249 107 -71 128 16 30
127 -96 110 -247 137 -361 66 -25 -15 -49 -8 -102 33 -84 64 -76 64 -130 -5z"/>
<path d="M412 1799 c-82 -24 -169 -114 -195 -201 -84 -280 256 -496 482 -306
236 199 11 596 -287 507z m240 -127 c170 -170 6 -447 -222 -372 -237 78 -180
440 70 440 69 0 96 -12 152 -68z"/>
<path d="M398 1622 c-72 -73 -75 -147 -9 -213 69 -69 174 -67 230 4 127 162
-76 354 -221 209z"/>
<path d="M1200 1410 c-149 -150 -163 -170 -119 -170 54 0 373 300 346 326 -30
31 -65 7 -227 -156z"/>
<path d="M2354 1364 c-128 -129 -131 -135 -72 -135 46 0 218 176 218 223 0 48
-28 31 -146 -88z"/>
<path d="M210 880 c-288 -500 -314 -460 288 -460 601 0 579 -30 314 423 l-188
321 -123 3 -123 3 -168 -290z m360 75 c32 -58 92 -161 134 -230 42 -69 76
-132 76 -140 0 -8 -126 -15 -280 -15 -154 0 -280 6 -280 13 0 7 34 70 77 140
42 70 102 174 135 232 71 129 69 129 138 0z"/>
<path d="M760 1076 c2 -113 10 -114 807 -120 l736 -6 59 -65 c79 -90 79 -187
0 -267 l-59 -58 -619 0 -620 0 -8 -70 -8 -70 627 0 c584 0 632 3 704 39 259
132 212 546 -70 617 -126 32 -1549 31 -1549 0z"/>
<path d="M1160 886 c-101 -37 -132 -154 -60 -226 117 -117 313 51 205 176 -39
45 -100 66 -145 50z"/>
<path d="M1587 870 c-82 -34 -104 -117 -51 -189 79 -106 244 -55 244 76 0 98
-96 154 -193 113z"/>
<path d="M2049 879 c-64 -23 -92 -71 -85 -142 12 -133 192 -156 251 -33 49
101 -59 215 -166 175z"/>
<path d="M775 185 l-63 -65 50 0 c31 0 76 26 116 68 l66 68 -53 -3 c-30 -2
-79 -30 -116 -68z"/>
<path d="M1160 170 c-84 -86 -97 -128 -30 -103 18 7 27 22 20 33 -7 11 4 20
25 20 20 0 68 32 105 70 68 70 68 70 18 70 -32 0 -80 -31 -138 -90z"/>
<path d="M1560 170 c-65 -66 -79 -90 -53 -90 19 0 30 9 23 20 -7 11 8 20 35
20 28 0 75 29 115 70 68 70 68 70 18 70 -32 0 -80 -31 -138 -90z"/>
<path d="M1974 184 c-76 -78 -89 -104 -53 -104 12 0 16 9 9 20 -7 11 8 20 35
20 28 0 75 29 115 70 68 70 68 70 18 70 -31 0 -77 -28 -124 -76z"/>
<path d="M2362 172 c-94 -96 -82 -143 18 -69 55 41 120 120 120 146 0 35 -63
-1 -138 -77z"/>
<path d="M352 160 c-76 -85 -84 -100 -52 -100 11 0 20 14 20 30 0 18 18 30 46
30 26 0 72 27 104 60 l57 60 -51 0 c-35 0 -75 -26 -124 -80z"/>
</g>
</svg>
