<?xml version="1.0" standalone="no"?>
<!DOCTYPE svg PUBLIC "-//W3C//DTD SVG 20010904//EN"
 "http://www.w3.org/TR/2001/REC-SVG-20010904/DTD/svg10.dtd">
<svg version="1.0" xmlns="http://www.w3.org/2000/svg"
 width="128.000000pt" height="128.000000pt" viewBox="0 0 128.000000 128.000000"
 preserveAspectRatio="xMidYMid meet">
<metadata>
Created by potrace 1.10, written by Peter Selinger 2001-2011
</metadata>
<g transform="translate(0.000000,128.000000) scale(0.050000,-0.050000)"
fill="#000000" stroke="none">
<path d="M270 2459 c-7 -21 -24 -39 -38 -39 -31 0 -92 -64 -92 -97 0 -44 52
-23 126 53 82 84 87 95 45 111 -18 7 -34 -4 -41 -28z"/>
<path d="M574 2381 c-94 -90 -99 -99 -54 -97 47 2 220 144 220 180 0 43 -73 6
-166 -83z"/>
<path d="M975 2383 c-97 -93 -99 -98 -50 -98 35 0 82 31 147 98 86 86 92 97
51 97 -28 0 -87 -39 -148 -97z"/>
<path d="M1374 2381 c-94 -90 -99 -99 -54 -97 47 2 220 144 220 180 0 43 -73
6 -166 -83z"/>
<path d="M1776 2381 c-95 -89 -101 -98 -56 -96 47 2 220 143 220 179 0 41 -67
7 -164 -83z"/>
<path d="M2174 2381 c-94 -90 -99 -99 -54 -97 47 2 220 144 220 180 0 43 -73
6 -166 -83z"/>
<path d="M101 2081 c-29 -53 -29 -1549 0 -1602 29 -55 2294 -62 2348 -8 38 39
48 1540 10 1610 -32 61 -2326 61 -2358 0z m319 -801 l0 -600 -50 0 -50 0 0
600 0 600 50 0 50 0 0 -600z m190 0 l0 -600 -50 0 -50 0 0 600 0 600 50 0 50
0 0 -600z m480 0 l0 -600 -50 0 -50 0 0 600 0 600 50 0 50 0 0 -600z m190 0
l0 -600 -50 0 -50 0 0 600 0 600 50 0 50 0 0 -600z m480 0 l0 -600 -50 0 -50
0 0 600 0 600 50 0 50 0 0 -600z m480 0 l0 -600 -50 0 -50 0 0 600 0 600 50 0
50 0 0 -600z m-1340 -120 l0 -480 -100 0 -100 0 0 480 0 480 100 0 100 0 0
-480z m670 0 l0 -480 -95 0 -95 0 0 480 0 480 95 0 95 0 0 -480z m480 0 l0
-480 -95 0 -95 0 0 480 0 480 95 0 95 0 0 -480z"/>
<path d="M363 170 c-87 -93 -96 -110 -63 -110 11 0 20 14 20 30 0 18 18 30 46
30 26 0 75 30 114 70 l68 70 -52 0 c-35 0 -77 -28 -133 -90z"/>
<path d="M780 190 c-68 -70 -68 -70 -18 -70 31 0 76 27 118 70 68 70 68 70 18
70 -31 0 -76 -27 -118 -70z"/>
<path d="M1160 170 c-84 -86 -97 -128 -30 -103 18 7 27 22 20 33 -7 11 4 20
25 20 20 0 68 32 105 70 68 70 68 70 18 70 -32 0 -80 -31 -138 -90z"/>
<path d="M1560 170 c-65 -66 -79 -90 -53 -90 19 0 30 9 23 20 -7 11 8 20 35
20 28 0 75 29 115 70 68 70 68 70 18 70 -32 0 -80 -31 -138 -90z"/>
<path d="M1974 184 c-76 -78 -89 -104 -53 -104 12 0 16 9 9 20 -7 11 8 20 35
20 28 0 75 29 115 70 68 70 68 70 18 70 -31 0 -77 -28 -124 -76z"/>
<path d="M2362 172 c-94 -96 -82 -143 18 -69 55 41 120 120 120 146 0 35 -63
-1 -138 -77z"/>
</g>
</svg>
